<svg fill="#fa314a" xmlns="http://www.w3.org/2000/svg"  viewBox="0 0 50 50" width="50px" height="50px"><path d="M 9 4 C 6.2504839 4 4 6.2504839 4 9 L 4 41 C 4 43.749516 6.2504839 46 9 46 L 41 46 C 43.749516 46 46 43.749516 46 41 L 46 9 C 46 6.2504839 43.749516 4 41 4 L 9 4 z M 9 6 L 41 6 C 42.668484 6 44 7.3315161 44 9 L 44 41 C 44 42.668484 42.668484 44 41 44 L 9 44 C 7.3315161 44 6 42.668484 6 41 L 6 9 C 6 7.3315161 7.3315161 6 9 6 z M 34 9 C 31.250421 9 29 11.250421 29 14 C 29 16.749579 31.250421 19 34 19 C 36.749579 19 39 16.749579 39 14 C 39 11.250421 36.749579 9 34 9 z M 21.5 11 C 19.578848 11 18 12.578848 18 14.5 C 18 16.421152 19.578848 18 21.5 18 C 23.421152 18 25 16.421152 25 14.5 C 25 12.578848 23.421152 11 21.5 11 z M 34 11 C 35.668699 11 37 12.331301 37 14 C 37 15.668699 35.668699 17 34 17 C 32.331301 17 31 15.668699 31 14 C 31 12.331301 32.331301 11 34 11 z M 12.5 12 C 11.131133 12 10 13.131133 10 14.5 C 10 15.868867 11.131133 17 12.5 17 C 13.868867 17 15 15.868867 15 14.5 C 15 13.131133 13.868867 12 12.5 12 z M 21.5 13 C 22.340272 13 23 13.659728 23 14.5 C 23 15.340272 22.340272 16 21.5 16 C 20.659728 16 20 15.340272 20 14.5 C 20 13.659728 20.659728 13 21.5 13 z M 12.5 14 C 12.787987 14 13 14.212013 13 14.5 C 13 14.787987 12.787987 15 12.5 15 C 12.212013 15 12 14.787987 12 14.5 C 12 14.212013 12.212013 14 12.5 14 z M 12.5 19 C 10.026562 19 8 21.026562 8 23.5 L 8 31 A 1.0001 1.0001 0 0 0 9 32 L 15 32 L 15 33.109375 L 15 36 A 1.0001 1.0001 0 0 0 16 37 L 26 37 L 26 41 A 1.0001 1.0001 0 0 0 27 42 L 41 42 A 1.0001 1.0001 0 0 0 42 41 L 42 29 C 42 24.593562 38.406438 21 34 21 C 31.375717 21 29.046204 22.280387 27.585938 24.242188 C 26.663461 21.772075 24.283794 20 21.5 20 C 19.625772 20 17.936536 20.806355 16.748047 22.083984 C 16.14815 20.302169 14.476325 19 12.5 19 z M 12.5 21 C 13.892562 21 15 22.107438 15 23.5 L 15 30 L 10 30 L 10 23.5 C 10 22.107438 11.107438 21 12.5 21 z M 21.5 22 C 23.997732 22 26 24.002268 26 26.5 L 26 35 L 17 35 L 17 33.109375 L 17 31 L 17 26.5 C 17 24.002268 19.002268 22 21.5 22 z M 34 23 C 37.325562 23 40 25.674438 40 29 L 40 40 L 28 40 L 28 36 L 28 29 C 28 25.674438 30.674438 23 34 23 z"/></svg>